<?xml version="1.0" standalone="no"?>
<!DOCTYPE svg PUBLIC "-//W3C//DTD SVG 20010904//EN"
 "http://www.w3.org/TR/2001/REC-SVG-20010904/DTD/svg10.dtd">
<svg version="1.0" xmlns="http://www.w3.org/2000/svg"
 width="250.000000pt" height="250.000000pt" viewBox="0 0 250.000000 250.000000"
 preserveAspectRatio="xMidYMid meet">

<g transform="translate(0.000000,250.000000) scale(0.100000,-0.100000)"
fill="#000000" stroke="none">
<path d="M0 1250 l0 -1250 1250 0 1250 0 0 1250 0 1250 -1250 0 -1250 0 0
-1250z m1600 518 c124 -221 227 -405 228 -410 2 -4 -64 -8 -146 -8 l-151 0
-77 138 c-114 201 -172 305 -182 321 -6 11 -77 -105 -247 -405 -131 -230 -269
-472 -307 -537 -37 -65 -68 -120 -68 -122 0 -3 221 -5 490 -5 l490 0 0 -130 0
-130 -715 0 -716 0 15 27 c13 26 191 340 741 1310 l200 352 110 0 110 0 225
-401z m445 -801 c159 -284 265 -478 265 -483 0 -2 -66 -4 -147 -4 l-148 0
-131 233 -130 232 -322 0 c-177 0 -322 2 -322 4 0 2 30 59 66 127 l65 124 337
0 337 0 130 -233z"/>
</g>
</svg>
